<svg width="14" height="18" viewBox="0 0 14 18" fill="none" xmlns="http://www.w3.org/2000/svg">
<path d="M9.52765 3.15373C10.1212 2.41137 10.5239 1.41459 10.4177 0.395996C9.54887 0.439198 8.48863 0.969195 7.8748 1.71214C7.32365 2.34837 6.83583 3.38688 6.96301 4.36277C7.93832 4.44737 8.91272 3.87527 9.52765 3.15373Z" fill="white"/>
<path d="M10.4067 4.5535C8.99033 4.46913 7.78605 5.35737 7.10966 5.35737C6.43289 5.35737 5.39711 4.59602 4.27682 4.61654C2.8187 4.63796 1.46573 5.46239 0.7258 6.77362C-0.796118 9.39674 0.324166 13.2877 1.80415 15.4241C2.52287 16.481 3.38904 17.6448 4.53036 17.603C5.60871 17.5607 6.03138 16.9048 7.34216 16.9048C8.65198 16.9048 9.03272 17.603 10.1742 17.5819C11.358 17.5607 12.098 16.5244 12.8168 15.4664C13.6413 14.2616 13.9788 13.0982 14 13.0343C13.9788 13.0132 11.7174 12.1456 11.6964 9.54434C11.675 7.36622 13.4719 6.33019 13.5564 6.26593C12.5417 4.76523 10.9563 4.59602 10.4067 4.5535Z" fill="white"/>
</svg>
