<svg width="30" height="25" viewBox="0 0 30 25" fill="none" xmlns="http://www.w3.org/2000/svg">
<path d="M29 23H27V14L27.2925 14.2925C27.4805 14.4801 27.7353 14.5854 28.0009 14.5852C28.2665 14.585 28.5211 14.4792 28.7087 14.2913C28.8964 14.1033 29.0017 13.8485 29.0014 13.5829C29.0012 13.3173 28.8955 13.0626 28.7075 12.875L16.4137 0.585003C16.0387 0.210213 15.5302 -0.000320435 15 -0.000320435C14.4698 -0.000320435 13.9613 0.210213 13.5863 0.585003L1.2925 12.875C1.10503 13.0626 0.999769 13.3171 0.999886 13.5823C1 13.8476 1.10548 14.1019 1.29312 14.2894C1.48077 14.4769 1.7352 14.5821 2.00044 14.582C2.26569 14.5819 2.52003 14.4764 2.7075 14.2888L3 14V23H1C0.734784 23 0.48043 23.1054 0.292893 23.2929C0.105357 23.4804 0 23.7348 0 24C0 24.2652 0.105357 24.5196 0.292893 24.7071C0.48043 24.8946 0.734784 25 1 25H29C29.2652 25 29.5196 24.8946 29.7071 24.7071C29.8946 24.5196 30 24.2652 30 24C30 23.7348 29.8946 23.4804 29.7071 23.2929C29.5196 23.1054 29.2652 23 29 23ZM18 23H12V17C12 16.8674 12.0527 16.7402 12.1464 16.6464C12.2402 16.5527 12.3674 16.5 12.5 16.5H17.5C17.6326 16.5 17.7598 16.5527 17.8536 16.6464C17.9473 16.7402 18 16.8674 18 17V23Z" fill="#303136"/>
</svg>
