<svg width="32" height="32" viewBox="0 0 32 32" fill="none" xmlns="http://www.w3.org/2000/svg">
<rect width="32" height="32" rx="16" fill="#B4B8C5"/>
<path d="M26.5 12.2709C26.4624 13.5765 25.9255 14.8179 25 15.7396L21.7422 18.9993C21.2677 19.4764 20.7033 19.8546 20.0816 20.1121C19.46 20.3695 18.7935 20.5012 18.1206 20.4993H18.1159C17.4316 20.4988 16.7543 20.3612 16.124 20.0945C15.4938 19.8279 14.9233 19.4376 14.4464 18.9468C13.9695 18.456 13.5958 17.8746 13.3474 17.237C13.0989 16.5993 12.9808 15.9184 13 15.2343C13.0056 15.0354 13.09 14.8468 13.2346 14.7101C13.3792 14.5734 13.5722 14.4998 13.7711 14.5054C13.97 14.511 14.1585 14.5954 14.2952 14.74C14.4319 14.8846 14.5056 15.0776 14.5 15.2765C14.4863 15.7602 14.5698 16.2417 14.7454 16.6926C14.9209 17.1434 15.1851 17.5546 15.5223 17.9016C15.8595 18.2487 16.2628 18.5246 16.7085 18.7132C17.1541 18.9017 17.633 18.999 18.1169 18.9993C18.5925 19.0005 19.0637 18.9074 19.5032 18.7254C19.9426 18.5434 20.3416 18.2761 20.6772 17.939L23.935 14.6812C24.6071 14.0005 24.9827 13.0816 24.9797 12.1251C24.9767 11.1685 24.5954 10.252 23.919 9.57558C23.2426 8.89918 22.3261 8.51786 21.3695 8.51486C20.4129 8.51187 19.494 8.88745 18.8134 9.5596L17.7822 10.5908C17.6404 10.7256 17.4516 10.7996 17.256 10.7971C17.0604 10.7946 16.8736 10.7157 16.7353 10.5774C16.597 10.4391 16.5182 10.2523 16.5157 10.0567C16.5132 9.86115 16.5871 9.67233 16.7219 9.53054L17.7531 8.49929C18.2289 8.02335 18.7938 7.6458 19.4155 7.38821C20.0372 7.13063 20.7036 6.99805 21.3765 6.99805C22.0495 6.99805 22.7159 7.13063 23.3376 7.38821C23.9593 7.6458 24.5242 8.02335 25 8.49929C25.4928 8.99331 25.8799 9.58245 26.1378 10.2308C26.3957 10.8792 26.5189 11.5733 26.5 12.2709ZM14.2187 21.4049L13.1875 22.4362C12.8511 22.7748 12.4508 23.0431 12.0098 23.2256C11.5689 23.4081 11.096 23.5012 10.6187 23.4993C9.90277 23.4987 9.20304 23.2859 8.60795 22.8878C8.01287 22.4897 7.54913 21.9242 7.27534 21.2626C7.00155 20.6011 6.92999 19.8732 7.06971 19.171C7.20942 18.4688 7.55414 17.8238 8.0603 17.3174L11.3125 14.0596C11.8247 13.5447 12.48 13.1956 13.1931 13.0579C13.9062 12.9201 14.6443 12.9999 15.3115 13.287C15.9787 13.5741 16.5441 14.0552 16.9344 14.6678C17.3247 15.2803 17.5217 15.9961 17.5 16.7221C17.4944 16.921 17.568 17.114 17.7047 17.2586C17.8414 17.4032 18.03 17.4876 18.2289 17.4932C18.4278 17.4988 18.6208 17.4251 18.7654 17.2884C18.91 17.1517 18.9944 16.9632 19 16.7643C19.018 16.0678 18.8943 15.375 18.6365 14.7278C18.3786 14.0806 17.992 13.4925 17.5 12.9993C16.5392 12.0389 15.2364 11.4995 13.878 11.4995C12.5195 11.4995 11.2167 12.0389 10.2559 12.9993L6.99999 16.2571C6.28395 16.9728 5.79616 17.8848 5.59825 18.8777C5.40033 19.8706 5.50119 20.8998 5.88806 21.8354C6.27494 22.771 6.93047 23.5709 7.77182 24.134C8.61317 24.6972 9.60257 24.9983 10.615 24.9993C11.288 25.0012 11.9547 24.8697 12.5765 24.6122C13.1983 24.3547 13.7629 23.9764 14.2375 23.4993L15.2687 22.468C15.3901 22.3251 15.4535 22.1418 15.4465 21.9544C15.4394 21.767 15.3624 21.589 15.2306 21.4556C15.0988 21.3222 14.9218 21.243 14.7345 21.2336C14.5472 21.2242 14.3632 21.2853 14.2187 21.4049Z" fill="white"/>
</svg>
