<svg width="26" height="25" viewBox="0 0 26 25" fill="none" xmlns="http://www.w3.org/2000/svg">
<path d="M25.8662 24.5C25.7784 24.6521 25.6521 24.7783 25.5001 24.8661C25.348 24.9539 25.1755 25.0001 25 25H0.999951C0.824502 24.9998 0.652187 24.9535 0.500311 24.8657C0.348434 24.7778 0.222342 24.6516 0.134695 24.4996C0.0470479 24.3476 0.000931552 24.1752 0.000976595 23.9998C0.00102164 23.8243 0.0472264 23.652 0.134951 23.5C2.0387 20.2088 4.97245 17.8488 8.3962 16.73C6.70266 15.7218 5.38688 14.1856 4.65094 12.3573C3.91499 10.5289 3.79956 8.50951 4.32238 6.60921C4.8452 4.7089 5.97735 3.03275 7.54498 1.83817C9.11261 0.643583 11.029 -0.00338745 13 -0.00338745C14.9709 -0.00338745 16.8873 0.643583 18.4549 1.83817C20.0226 3.03275 21.1547 4.7089 21.6775 6.60921C22.2003 8.50951 22.0849 10.5289 21.349 12.3573C20.613 14.1856 19.2972 15.7218 17.6037 16.73C21.0275 17.8488 23.9612 20.2088 25.865 23.5C25.9529 23.6519 25.9993 23.8243 25.9996 23.9998C25.9998 24.1754 25.9538 24.3479 25.8662 24.5Z" fill="#303136"/>
</svg>
