<svg width="26" height="24" viewBox="0 0 26 24" fill="none" xmlns="http://www.w3.org/2000/svg">
<path d="M25.615 2.21125C25.4952 2.11791 25.3557 2.05308 25.2072 2.02168C25.0586 1.99028 24.9048 1.99312 24.7575 2.03L17.1162 3.94L9.4475 0.105002C9.23383 -0.00157326 8.98908 -0.0281766 8.7575 0.0300023L0.7575 2.03C0.541161 2.08408 0.349103 2.20891 0.211853 2.38467C0.0746019 2.56042 3.37634e-05 2.77701 0 3V21C2.30059e-05 21.152 0.0346739 21.3019 0.101321 21.4385C0.167968 21.575 0.264859 21.6946 0.384633 21.7881C0.504408 21.8816 0.643916 21.9466 0.792562 21.9781C0.941209 22.0096 1.09508 22.0068 1.2425 21.97L8.88375 20.06L16.5525 23.895C16.6917 23.9636 16.8448 23.9995 17 24C17.0818 24 17.1632 23.9899 17.2425 23.97L25.2425 21.97C25.4588 21.9159 25.6509 21.7911 25.7881 21.6153C25.9254 21.4396 26 21.223 26 21V3C26 2.84791 25.9654 2.69781 25.8987 2.56113C25.8319 2.42445 25.7349 2.30479 25.615 2.21125ZM10 2.6175L16 5.6175V21.3825L10 18.3825V2.6175ZM2 3.78125L8 2.28125V18.2188L2 19.7188V3.78125ZM24 20.2188L18 21.7188V5.78125L24 4.28125V20.2188Z" fill="#B4B8C5"/>
</svg>
