<svg width="48" height="48" viewBox="0 0 48 48" fill="none" xmlns="http://www.w3.org/2000/svg">
<rect width="48" height="48" rx="24" fill="url(#paint0_linear_1067_28892)"/>
<path d="M23.2682 21.1123C24.0209 21.399 26.0783 23.2103 27.2826 21.8647C28.4869 20.5192 27.355 19.2362 25.727 18.3535C24.099 17.4711 21.7127 17.6429 20.96 17.8521C20.2114 18.0601 19.0538 18.5309 17.9666 19.4425C17.9551 19.4522 17.9449 19.4615 17.9344 19.4722C17.6528 19.7568 13.4621 23.993 11.4259 26.0284C9.31834 28.1352 9.97082 32.3486 11.6769 34.3551C13.383 36.3615 17.8991 37.7161 20.3077 35.4588C21.9313 33.9372 24.1478 31.7772 25.4201 30.531C25.757 30.2009 25.4857 29.5961 25.0141 29.5917C24.6748 29.5885 24.3399 29.5732 24.0711 29.5396C23.3686 29.4516 22.2647 28.8873 22.064 28.8373C21.8632 28.7873 18.8525 32.2484 17.8991 32.8502C16.9457 33.4521 15.1894 33.1012 14.2862 32.098C13.383 31.0948 13.4332 28.9378 13.9851 28.3359C14.5197 27.7529 20.5616 21.8525 20.9413 21.4818C20.9539 21.4696 20.9668 21.4581 20.9807 21.4474C21.5769 20.9901 22.5242 20.829 23.2682 21.1123Z" fill="white"/>
<path d="M24.7318 25.624C23.9791 25.3374 21.9217 23.5261 20.7174 24.8716C19.5131 26.2171 20.645 27.5001 22.273 28.3828C23.901 29.2653 26.2873 29.0935 27.04 28.8843C27.7886 28.6762 28.9462 28.2055 30.0334 27.2938C30.0449 27.2842 30.0551 27.2748 30.0656 27.2641C30.3472 26.9795 34.5379 22.7433 36.5741 20.7079C38.6817 18.6011 38.0292 14.3877 36.3231 12.3813C34.617 10.3748 30.1009 9.02025 27.6923 11.2775C26.0687 12.7991 23.8522 14.9591 22.5799 16.2053C22.243 16.5354 22.5143 17.1402 22.9859 17.1446C23.3252 17.1478 23.6601 17.1631 23.9289 17.1968C24.6314 17.2847 25.7353 17.8491 25.936 17.899C26.1368 17.949 29.1475 14.488 30.1009 13.8861C31.0543 13.2843 32.8106 13.6351 33.7138 14.6383C34.617 15.6416 34.5668 17.7985 34.0149 18.4005C33.4803 18.9835 27.4384 24.8838 27.0587 25.2545C27.0461 25.2668 27.0332 25.2782 27.0193 25.2889C26.4231 25.7462 25.4758 25.9073 24.7318 25.624Z" fill="white"/>
<defs>
<linearGradient id="paint0_linear_1067_28892" x1="0" y1="0" x2="32.0475" y2="56.9733" gradientUnits="userSpaceOnUse">
<stop stop-color="#B61DE3"/>
<stop offset="1" stop-color="#7B34FE"/>
</linearGradient>
</defs>
</svg>
