<svg width="24" height="24" viewBox="0 0 24 24" fill="none" xmlns="http://www.w3.org/2000/svg">
<path d="M20.7927 16.4934C20.2724 15.5971 19.4989 13.0612 19.4989 9.74902C19.4989 7.7599 18.7087 5.85225 17.3022 4.44572C15.8957 3.0392 13.988 2.24902 11.9989 2.24902C10.0098 2.24902 8.10214 3.0392 6.69561 4.44572C5.28909 5.85225 4.49891 7.7599 4.49891 9.74902C4.49891 13.0621 3.72454 15.5971 3.20423 16.4934C3.07135 16.7213 3.00091 16.9801 3.00001 17.2439C2.9991 17.5076 3.06776 17.767 3.19907 17.9957C3.33037 18.2245 3.51968 18.4146 3.74789 18.5468C3.9761 18.6791 4.23515 18.7488 4.49891 18.749H8.32485C8.49789 19.5957 8.95806 20.3567 9.62754 20.9032C10.297 21.4497 11.1347 21.7482 11.9989 21.7482C12.8631 21.7482 13.7008 21.4497 14.3703 20.9032C15.0398 20.3567 15.4999 19.5957 15.673 18.749H19.4989C19.7626 18.7487 20.0215 18.6788 20.2496 18.5465C20.4777 18.4142 20.6669 18.2241 20.7981 17.9953C20.9292 17.7666 20.9978 17.5073 20.9969 17.2436C20.9959 16.98 20.9255 16.7212 20.7927 16.4934ZM11.9989 20.249C11.5337 20.2489 11.0801 20.1046 10.7003 19.8359C10.3205 19.5673 10.0333 19.1876 9.87829 18.749H14.1195C13.9645 19.1876 13.6773 19.5673 13.2975 19.8359C12.9178 20.1046 12.4641 20.2489 11.9989 20.249ZM4.49891 17.249C5.22079 16.0078 5.99891 13.1315 5.99891 9.74902C5.99891 8.15772 6.63105 6.6316 7.75627 5.50638C8.88149 4.38116 10.4076 3.74902 11.9989 3.74902C13.5902 3.74902 15.1163 4.38116 16.2416 5.50638C17.3668 6.6316 17.9989 8.15772 17.9989 9.74902C17.9989 13.1287 18.7752 16.005 19.4989 17.249H4.49891Z" fill="white"/>
</svg>
