<svg width="194" height="67" viewBox="0 0 194 67" fill="none" xmlns="http://www.w3.org/2000/svg">
<path d="M141.068 64.922V5.51611H157.278V28.939H165.679C167.094 28.939 168.367 28.6278 169.498 28.0055C170.686 27.3266 171.62 26.393 172.299 25.2049C173.034 24.0168 173.402 22.5741 173.402 20.8768V5.51611H189.611V21.1314C189.611 24.7523 188.734 28.0338 186.981 30.9758C185.283 33.9178 182.992 36.3223 180.106 38.1893L185.877 50.41C186.16 50.9192 186.528 51.3152 186.981 51.5981C187.433 51.881 187.971 52.0224 188.593 52.0224H193.515V64.922H184.519C181.181 64.922 178.494 64.2996 176.457 63.0549C174.421 61.8102 172.865 60.1412 171.79 58.0479L164.152 42.0083C163.812 42.0083 163.473 42.0083 163.133 42.0083C162.851 42.0083 162.511 42.0083 162.115 42.0083H157.278V64.922H141.068Z" fill="white"/>
<path d="M122.771 37.2562C120.451 37.2562 118.471 36.4076 116.83 34.7102C115.19 33.0129 114.369 31.0044 114.369 28.6848C114.369 26.3651 115.19 24.3849 116.83 22.7442C118.471 21.0469 120.451 20.1982 122.771 20.1982C125.147 20.1982 127.156 21.0469 128.796 22.7442C130.494 24.3849 131.342 26.3651 131.342 28.6848C131.342 30.2124 130.946 31.6268 130.154 32.9281C129.419 34.2293 128.4 35.276 127.099 36.0681C125.798 36.8602 124.355 37.2562 122.771 37.2562ZM122.771 66.0256C120.451 66.0256 118.471 65.177 116.83 63.4797C115.19 61.7823 114.369 59.7739 114.369 57.4542C114.369 55.1345 115.19 53.1544 116.83 51.5136C118.471 49.8163 120.451 48.9677 122.771 48.9677C125.147 48.9677 127.156 49.8163 128.796 51.5136C130.494 53.1544 131.342 55.1345 131.342 57.4542C131.342 58.9818 130.946 60.3962 130.154 61.6975C129.419 62.9987 128.4 64.0454 127.099 64.8375C125.798 65.6296 124.355 66.0256 122.771 66.0256Z" fill="white"/>
<path d="M60.3866 64.9221V39.8019C60.3866 36.0678 61.2918 32.7298 63.1023 29.7878C64.9693 26.7892 67.5719 24.4413 70.9099 22.744C74.3045 21.0467 78.2649 20.198 82.7911 20.198C87.3173 20.198 91.2211 21.0467 94.5025 22.744C97.784 24.4413 100.302 26.7892 102.056 29.7878C103.809 32.7298 104.686 36.0678 104.686 39.8019V64.9221H89.9198V40.4809C89.9198 39.1796 89.6086 37.9915 88.9863 36.9165C88.3639 35.785 87.487 34.8797 86.3554 34.2008C85.2805 33.5219 84.0075 33.1824 82.5365 33.1824C81.1221 33.1824 79.8208 33.5219 78.6327 34.2008C77.5011 34.8797 76.6242 35.785 76.0019 36.9165C75.3795 37.9915 75.0683 39.1796 75.0683 40.4809V64.9221H60.3866Z" fill="white"/>
<path d="M39.6436 64.9221V21.2164H54.4102V64.9221H39.6436ZM47.0269 16.4639C44.7638 16.4639 42.8119 15.6435 41.1712 14.0028C39.587 12.3621 38.7949 10.4385 38.7949 8.23196C38.7949 5.96888 39.587 4.04526 41.1712 2.4611C42.8119 0.820367 44.7638 0 47.0269 0C49.29 0 51.2136 0.820367 52.7977 2.4611C54.4385 4.04526 55.2588 5.96888 55.2588 8.23196C55.2588 10.4385 54.4385 12.3621 52.7977 14.0028C51.2136 15.6435 49.29 16.4639 47.0269 16.4639Z" fill="white"/>
<path d="M19.1796 64.922C15.3324 64.922 11.966 64.1016 9.08061 62.4609C6.19518 60.7636 3.96039 58.5288 2.37623 55.7565C0.792078 52.9842 0 49.9291 0 46.591V5.51611H16.2093V47.1851C16.2093 48.4298 16.6336 49.5047 17.4823 50.41C18.3875 51.3152 19.4625 51.7678 20.7072 51.7678H36.4073V64.922H19.1796Z" fill="white"/>
</svg>
