<svg width="80" height="80" viewBox="0 0 80 80" fill="none" xmlns="http://www.w3.org/2000/svg">
<rect width="80" height="80" rx="40" fill="url(#paint0_linear_471_10174)"/>
<path d="M38.7863 35.1882C40.0407 35.6659 43.4696 38.6847 45.4768 36.4422C47.4839 34.1997 45.5976 32.0613 42.8842 30.5902C40.1709 29.1194 36.1937 29.4057 34.9392 29.7544C33.6888 30.102 31.7539 30.8891 29.9387 32.4148C29.9272 32.4245 29.92 32.4308 29.9094 32.4415C29.5795 32.7751 22.4795 39.9525 19.049 43.3817C15.5364 46.893 16.6239 53.9153 19.4674 57.2594C22.3109 60.6035 29.8376 62.8611 33.852 59.099C36.8734 56.2675 41.1264 52.1098 43.0456 50.2261C43.3823 49.8957 43.1122 49.3 42.6407 49.3122C41.7952 49.3341 40.825 49.3213 40.1244 49.2336C38.9535 49.087 37.1137 48.1464 36.7791 48.0631C36.4446 47.9798 31.4268 53.7483 29.8377 54.7513C28.2487 55.7544 25.3216 55.1697 23.8162 53.4976C22.3108 51.8256 22.3945 48.2307 23.3144 47.2274C24.2168 46.2434 34.5333 36.1699 34.9276 35.7849C34.9402 35.7726 34.946 35.7681 34.9599 35.7574C35.9527 34.987 37.5405 34.7137 38.7863 35.1882Z" fill="white"/>
<path d="M41.2137 42.7064C39.9593 42.2286 36.5304 39.2098 34.5232 41.4523C32.5161 43.6948 34.4024 45.8332 37.1158 47.3043C39.8291 48.7751 43.8063 48.4888 45.0608 48.1401C46.3112 47.7926 48.2461 47.0054 50.0613 45.4797C50.0728 45.47 50.08 45.4637 50.0906 45.453C50.4206 45.1194 57.5205 37.9421 60.951 34.5128C64.4636 31.0015 63.3761 23.9792 60.5326 20.6351C57.6891 17.291 50.1624 15.0334 46.148 18.7955C43.1267 21.627 38.8736 25.7848 36.9544 27.6684C36.6177 27.9988 36.8878 28.5945 37.3593 28.5823C38.2048 28.5605 39.175 28.5732 39.8756 28.661C41.0465 28.8075 42.8863 29.7481 43.2209 29.8314C43.5554 29.9147 48.5732 24.1463 50.1623 23.1432C51.7513 22.1401 54.6784 22.7249 56.1838 24.3969C57.6892 26.069 57.6055 29.6639 56.6856 30.6671C55.7832 31.6511 45.4667 41.7247 45.0724 42.1097C45.0598 42.1219 45.054 42.1264 45.0401 42.1371C44.0473 42.9075 42.4595 43.1808 41.2137 42.7064Z" fill="white"/>
<defs>
<linearGradient id="paint0_linear_471_10174" x1="0" y1="0" x2="53.4125" y2="94.9555" gradientUnits="userSpaceOnUse">
<stop stop-color="#B61DE3"/>
<stop offset="1" stop-color="#7B34FE"/>
</linearGradient>
</defs>
</svg>
